# xmcd
#
# Track frame offsets: 
#        150
#        33313
#        89525
#        110514
#
# Disc length: 2371 seconds
#
# Revision: 0
# Processed by: cddbd v1.5.2PL0 Copyright (c) Steve Scherf et al.
# Submitted via: ExactAudioCopy v1.0b3
#
DISCID=2b094104
DTITLE=75 Dollar Bill - Wood - Metal - Plastic - Pattern - Rhythm - Ro
DTITLE=ck
DYEAR=2017
DGENRE=Mixed blues
TTITLE0=Earth Saw
TTITLE1=Beni Said
TTITLE2=Cummins Falls
TTITLE3=I'm Not Trying To Wake Up
EXTD=
EXTT0=
EXTT1=
EXTT2=
EXTT3=
PLAYORDER=
